<svg version="1.1" xmlns="http://www.w3.org/2000/svg" xmlns:xlink="http://www.w3.org/1999/xlink" preserveAspectRatio="xMidYMid meet" viewBox="823 386 197 170"><g data-item-type="text" data-item="Business" id="logo__item--business" class="logo__item">
                <g class="logo__item__inner" transform="translate(826.8125 547.826507967851) scale(1 1) rotate(0 0 0)">
                    <text data-part-id="logo__item--business" dy="0" dominant-baseline="auto" alignment-baseline="auto" font-family="Montserrat" font-size="32px" fill="#001da6" letter-spacing="0" font-weight="bold" font-style="normal" data-font-family="Montserrat" data-font-weight="bold" data-font-style="normal" data-ttf-url="/builder_assets/fontsttf/font-montserrat-bold-normal.ttf" data-font-filename="montserrat-bold-normal">Viajes JSSM</text>
                </g>
            </g><g data-item-type="image" data-item="Image" data-logo-item="" id="logo__item--logo_0" class="logo__item">
    <g class="logo__item__inner" transform="translate(858.9412280899877 382.5) scale(1.3060513019459772 1.3060513019459772) rotate(0 0 0)">
        
<g>
	<radialGradient id="SVGID_1_" cx="42.0366" cy="63.4961" r="36.9979" gradientUnits="userSpaceOnUse">
		<stop offset="0" style="stop-color:#00A69C"></stop>
		<stop offset="1" style="stop-color:#00423D"></stop>
	</radialGradient>
	<path fill="#ff4700" d="M50.753,5.157c1.333,3.844,2.258,7.81,3.386,11.712c-2.24,0-4.466,0-6.706,0   C48.544,12.967,49.55,9.034,50.753,5.157z" data-part-id="logo__item--logo_0__0"></path>
	<g>
		<radialGradient id="SVGID_2_" cx="42.0293" cy="63.5029" r="37.0069" gradientUnits="userSpaceOnUse">
			<stop offset="0" style="stop-color:#00A69C"></stop>
			<stop offset="1" style="stop-color:#00423D"></stop>
		</radialGradient>
		<path fill="#ffef00" d="M39.287,24.786c7.352-3.419,16.259-3.354,23.538,0.228c7.491,3.583,13.379,10.494,15.424,18.574    c1.815,6.813,0.94,14.32-2.552,20.462c-4.906,8.924-14.803,15.114-25.075,14.844c-8.351-0.049-16.292-4.252-21.693-10.509    c9.131-0.016,18.201-3.516,24.752-9.92c-9.225,4.474-20.589,5.12-29.872,0.514C19.114,45.829,26.941,30.495,39.287,24.786z     M49.313,38.877c0.613,1.194,1.407,2.265,2.249,3.295c-0.017,0.303-0.041,0.892-0.057,1.194c0.932,1.12,1.848,2.266,2.731,3.435    c0.384-0.024,1.145-0.065,1.537-0.081c-0.213,0.409-0.409,0.826-0.605,1.234c1.235,1.342,2.028,3.369,3.975,3.796    c0.164,0.203,0.508,0.604,0.671,0.792c-0.916,0.573-1.832,1.146-2.731,1.734c0.262-0.482,0.801-1.447,1.071-1.923    c-1.455,0.099-2.461,1.17-3.517,2.029c0.597,0.49,1.178,0.998,1.759,1.513c-1.824-0.817-3.141-2.372-4.817-3.409    c0.933,1.487,2.224,2.714,3.165,4.186c-0.213,0.427-0.638,1.269-0.851,1.686c0.507-0.05,1.513-0.139,2.021-0.188    c0.679,1.579,1.316,3.182,2.199,4.653c-0.131-1.178-0.376-2.339-0.646-3.492c1.235-0.572,3.289-0.63,3.46-2.37    c-0.557,0.072-1.668,0.22-2.225,0.294c1.162-0.582,2.257-1.76,3.664-1.376c-1.145,2.127,0.858,4.025,1.57,5.931    c0.303-0.115,0.916-0.344,1.21-0.458c-0.229,0.524-0.441,1.047-0.67,1.578c0.67,1.31,1.324,2.626,1.963,3.959    c0.295,0.099,0.891,0.302,1.194,0.401c0.556,1.259,1.177,2.502,1.93,3.663c0.303-1.988-0.516-3.853-1.056-5.709    c-1.055-3.354-1.513-6.846-2.248-10.264c-0.573-0.377-1.153-0.753-1.718-1.128c2.421-1.563,5.021-2.846,7.426-4.433    c1.341-0.827,1.832-2.397,2.454-3.746c-1.423-0.393-2.993-0.629-4.352,0.123c-2.649,1.391-4.973,3.296-7.508,4.842    c-0.057-0.442-0.147-1.341-0.204-1.791c-2.396-1.791-4.874-3.459-7.173-5.381C53.28,41.887,51.637,39.891,49.313,38.877z" data-part-id="logo__item--logo_0__1"></path>
	</g>
	<radialGradient id="SVGID_3_" cx="42.0356" cy="63.5449" r="37.039" gradientUnits="userSpaceOnUse">
		<stop offset="0" style="stop-color:#00A69C"></stop>
		<stop offset="1" style="stop-color:#00423D"></stop>
	</radialGradient>
	<path fill="#ff4700" d="M21.449,22.692c1.563,0.851,3.12,1.734,4.67,2.601c-0.691,0.687-1.378,1.374-2.061,2.061   C23.175,25.808,22.3,24.254,21.449,22.692z" data-part-id="logo__item--logo_0__2"></path>
	<radialGradient id="SVGID_4_" cx="42.084" cy="63.5303" r="36.9866" gradientUnits="userSpaceOnUse">
		<stop offset="0" style="stop-color:#00A69C"></stop>
		<stop offset="1" style="stop-color:#00423D"></stop>
	</radialGradient>
	<path fill="#ff3f00" d="M76.27,25.963c1.563-0.875,3.125-1.759,4.695-2.617c-0.867,1.563-1.76,3.124-2.626,4.694   C77.644,27.346,76.957,26.659,76.27,25.963z" data-part-id="logo__item--logo_0__3"></path>
	<radialGradient id="SVGID_5_" cx="42.0288" cy="63.502" r="37.0031" gradientUnits="userSpaceOnUse">
		<stop offset="0" style="stop-color:#00A69C"></stop>
		<stop offset="1" style="stop-color:#00423D"></stop>
	</radialGradient>
	<path fill="#ff3f00" d="M4.639,50.817c4.012-1.128,8.019-2.249,12.035-3.361c0,2.24,0,4.491,0,6.739   C12.658,53.067,8.65,51.947,4.639,50.817z" data-part-id="logo__item--logo_0__4"></path>
	<radialGradient id="SVGID_6_" cx="42.0103" cy="63.4971" r="37.0177" gradientUnits="userSpaceOnUse">
		<stop offset="0" style="stop-color:#00A69C"></stop>
		<stop offset="1" style="stop-color:#00423D"></stop>
	</radialGradient>
	<path fill="#ff3f00" d="M84.521,47.457c4,1.112,7.998,2.233,11.998,3.354c-3.991,1.169-7.998,2.248-12.006,3.377   C84.521,51.947,84.514,49.697,84.521,47.457z" data-part-id="logo__item--logo_0__5"></path>
	<radialGradient id="SVGID_7_" cx="57.1406" cy="58.1533" r="0" gradientUnits="userSpaceOnUse">
		<stop offset="0" style="stop-color:#00A69C"></stop>
		<stop offset="1" style="stop-color:#00423D"></stop>
	</radialGradient>
	<path fill="url(#SVGID_7_)" d="M57.141,58.153" data-part-id="logo__item--logo_0__6"></path>
	<radialGradient id="SVGID_8_" cx="42.0708" cy="63.501" r="36.9719" gradientUnits="userSpaceOnUse">
		<stop offset="0" style="stop-color:#00A69C"></stop>
		<stop offset="1" style="stop-color:#00423D"></stop>
	</radialGradient>
	<path fill="#ff3f00" d="M74.765,77.226c0.695-0.688,1.391-1.374,2.102-2.062c0.858,1.57,1.743,3.134,2.602,4.704   C77.89,78.991,76.319,78.117,74.765,77.226z" data-part-id="logo__item--logo_0__7"></path>
	<radialGradient id="SVGID_9_" cx="42.0337" cy="63.4863" r="37.0381" gradientUnits="userSpaceOnUse">
		<stop offset="0" style="stop-color:#00A69C"></stop>
		<stop offset="1" style="stop-color:#00423D"></stop>
	</radialGradient>
	<path fill="#ff4700" d="M23.764,81.397c0.863-1.578,1.746-3.142,2.625-4.703c0.683,0.695,1.375,1.382,2.062,2.069   C26.888,79.646,25.334,80.529,23.764,81.397z" data-part-id="logo__item--logo_0__8"></path>
	<radialGradient id="SVGID_10_" cx="42.0396" cy="63.5049" r="37.0038" gradientUnits="userSpaceOnUse">
		<stop offset="0" style="stop-color:#00A69C"></stop>
		<stop offset="1" style="stop-color:#00423D"></stop>
	</radialGradient>
	<path fill="#ff5600" d="M47.416,84.726c2.241-0.009,4.49-0.009,6.739,0c-1.112,3.991-2.225,7.998-3.353,11.998   C49.616,92.74,48.562,88.717,47.416,84.726z" data-part-id="logo__item--logo_0__9"></path>
</g>

    </g>
</g></svg>